# xmcd
#
# Track frame offsets:
#	150
#	8161
#	26017
#	44483
#	62296
#	81466
#	98138
#	122163
#	141900
#	162260
#	180048
#	197290
#	215982
#	252874
#	274740
#	288804
#	304000
#	313436
#
# Disc length: 4438 seconds
#
# Revision: 2
# Processed by: cddbd v1.4PL0 Copyright (c) Steve Scherf et al.
# Submitted via: audiograbber 1.81.03
#
DISCID=fc115412
DTITLE=Janis Joplin - 18 Essential Songs
DYEAR=1900
DGENRE=Classic Rock
TTITLE0=Mercedes Benz
TTITLE1=Me And Bobby Mcgee
TTITLE2=Summertime
TTITLE3=Cry Baby
TTITLE4=Piece My Heart
TTITLE5=Maybe
TTITLE6=To Love Somebody
TTITLE7=Kozmic Blues
TTITLE8=Me And Bob Mcgee
TTITLE9=Try Just A Little Bit Harder 
TTITLE10=Little Girl Blue
TTITLE11=One Good Man
TTITLE12=Ball And Chain
TTITLE13=I Need A Man To Love
TTITLE14=Trust Me
TTITLE15=Get It While You Can
TTITLE16=Down On Me
TTITLE17=Turtle Blues
EXTD=
EXTT0=
EXTT1=
EXTT2=
EXTT3=
EXTT4=
EXTT5=
EXTT6=
EXTT7=
EXTT8=
EXTT9=
EXTT10=
EXTT11=
EXTT12=
EXTT13=
EXTT14=
EXTT15=
EXTT16=
EXTT17=
PLAYORDER=
